<svg xmlns="http://www.w3.org/2000/svg" width="1200" height="630" viewBox="0 0 1200 630">
  <defs>
    <radialGradient id="bg" cx="50%" cy="38%" r="80%">
      <stop offset="0%" stop-color="#1a1330"/>
      <stop offset="55%" stop-color="#0c0a16"/>
      <stop offset="100%" stop-color="#070510"/>
    </radialGradient>
    <linearGradient id="moon" x1="0" y1="0" x2="0.4" y2="1">
      <stop offset="0%" stop-color="#fbf1d4"/>
      <stop offset="55%" stop-color="#e7c57e"/>
      <stop offset="100%" stop-color="#c79a4e"/>
    </linearGradient>
    <filter id="glow" x="-60%" y="-60%" width="220%" height="220%">
      <feGaussianBlur stdDeviation="26" result="b"/>
      <feMerge>
        <feMergeNode in="b"/>
        <feMergeNode in="SourceGraphic"/>
      </feMerge>
    </filter>
  </defs>

  <rect width="1200" height="630" fill="url(#bg)"/>

  <!-- hviezdy -->
  <g fill="#ffffff">
    <circle cx="150" cy="120" r="2.2" opacity="0.9"/>
    <circle cx="320" cy="80" r="1.4" opacity="0.6"/>
    <circle cx="980" cy="110" r="2.6" opacity="0.9"/>
    <circle cx="1080" cy="260" r="1.6" opacity="0.7"/>
    <circle cx="220" cy="300" r="1.5" opacity="0.7"/>
    <circle cx="120" cy="470" r="2" opacity="0.8"/>
    <circle cx="1010" cy="470" r="1.5" opacity="0.6"/>
    <circle cx="860" cy="540" r="2.2" opacity="0.8"/>
    <circle cx="430" cy="520" r="1.3" opacity="0.6"/>
    <circle cx="690" cy="70" r="1.6" opacity="0.7"/>
  </g>

  <!-- kosáčik mesiaca (carved crescent) -->
  <g filter="url(#glow)" transform="translate(600 286)">
    <path d="M 70 -150 A 150 150 0 1 0 70 150 A 118 118 0 1 1 70 -150 Z" fill="url(#moon)"/>
  </g>

  <!-- názov -->
  <text x="600" y="520" text-anchor="middle" font-family="Georgia, 'Times New Roman', serif" font-size="58" letter-spacing="14" fill="#e7c57e">PRADÁVNA VÝZVA</text>
  <text x="600" y="568" text-anchor="middle" font-family="Georgia, serif" font-size="26" letter-spacing="8" fill="#8c84a0">PRE PÚTNIKA MENOM SEHE</text>
</svg>
